<svg width="68" height="50" viewBox="0 0 68 50" fill="none" xmlns="http://www.w3.org/2000/svg">
<path d="M14.7885 7.89478C14.0622 7.89478 13.4727 8.48427 13.4727 9.21062C13.4727 9.93696 14.0622 10.5265 14.7885 10.5265C15.5148 10.5265 16.1043 9.93696 16.1043 9.21062C16.1043 8.48427 15.5148 7.89478 14.7885 7.89478Z" fill="#DD0F00"/>
<path d="M62.2807 19.1484L60.3768 15.3405C59.7036 13.9941 58.3508 13.1579 56.846 13.1579H45.8407V3.94739C45.8407 1.77086 44.07 0 41.8933 0H4.26185C2.08518 0 0.314453 1.77073 0.314453 3.94739V38.1578C0.314453 40.3344 2.08518 42.1052 4.26185 42.1052H8.20924C8.20924 44.1256 8.97308 45.9705 10.2259 47.3683H1.63029C0.903555 47.3683 0.314453 47.9576 0.314453 48.6842C0.314453 49.4108 0.903555 50 1.63029 50H66.3671C67.0938 50 67.6829 49.4108 67.6829 48.6842C67.6829 47.9576 67.0938 47.3683 66.3671 47.3683H63.0346C64.2875 45.9704 65.0512 44.1256 65.0512 42.1052C65.0512 42.0302 65.0477 41.9556 65.0456 41.8807C66.58 41.3391 67.6828 39.8753 67.6828 38.1578V30.8841C67.6828 29.3487 67.9869 30.7821 62.2807 19.1484ZM60.2906 21.0525L64.238 28.9473H51.1038V21.0525H60.2906ZM2.946 31.5789H5.57756V34.2104H2.946V31.5789ZM16.1039 47.3683C13.2018 47.3683 10.8408 45.0072 10.8408 42.1052C10.8408 41.7468 10.8763 41.394 10.9474 41.051C11.4423 38.6122 13.6109 36.842 16.1039 36.842C18.5969 36.842 20.7657 38.612 21.2604 41.051C21.2608 41.0529 21.2612 41.0546 21.2616 41.0565C21.3316 41.3939 21.367 41.7468 21.367 42.1052C21.367 45.0073 19.006 47.3683 16.1039 47.3683ZM16.1039 34.2104C12.7326 34.2104 9.75733 36.3701 8.66044 39.4735H4.26185C3.53629 39.4735 2.946 38.8832 2.946 38.1577V36.8418H6.8934C7.62014 36.8418 8.20924 36.2526 8.20924 35.526V30.2629C8.20924 29.5363 7.62014 28.9471 6.8934 28.9471H2.946V3.94739C2.946 3.22184 3.53629 2.63155 4.26185 2.63155H41.8933C42.6189 2.63155 43.2092 3.22184 43.2092 3.94739C43.2092 4.92625 43.2092 36.3181 43.2092 39.4737H23.5467C22.4478 36.3685 19.4738 34.2104 16.1039 34.2104ZM21.9819 47.3683C23.2348 45.9704 23.9985 44.1256 23.9985 42.1052C25.0088 42.1052 48.8315 42.1052 49.2616 42.1052C49.2616 44.1256 50.0255 45.9705 51.2783 47.3683H21.9819ZM57.1564 47.3683C54.2543 47.3683 51.8933 45.0072 51.8933 42.1052C51.8933 41.7468 51.9289 41.394 51.9999 41.051C52.4948 38.6122 54.6634 36.842 57.1564 36.842C59.6494 36.842 61.8182 38.612 62.313 41.051C62.3133 41.0529 62.3137 41.0546 62.3141 41.0565C62.3841 41.3939 62.4195 41.7468 62.4195 42.1052C62.4197 45.0073 60.0585 47.3683 57.1564 47.3683ZM65.0512 38.1578C65.0512 38.5955 64.8355 38.9827 64.5059 39.2222C63.3386 36.2525 60.4346 34.2106 57.1564 34.2106C53.7851 34.2106 50.8099 36.3703 49.713 39.4737H45.8406V15.7894H56.8459C57.3475 15.7894 57.7984 16.0684 58.0229 16.5172L58.9748 18.421H49.7881C49.0614 18.421 48.4723 19.0102 48.4723 19.7368V30.2632C48.4723 30.9898 49.0614 31.579 49.7881 31.579H65.0512V38.1578Z" fill="black"/>
<path d="M36.6311 7.89478H20.0522C19.3254 7.89478 18.7363 8.48401 18.7363 9.21062C18.7363 9.93722 19.3254 10.5265 20.0522 10.5265H36.6311C37.3579 10.5265 37.947 9.93722 37.947 9.21062C37.947 8.48401 37.3577 7.89478 36.6311 7.89478Z" fill="#DD0F00"/>
<path d="M36.6317 13.1577H25.3158C24.5891 13.1577 24 13.7469 24 14.4736C24 15.2002 24.5891 15.7894 25.3158 15.7894H36.6317C37.3584 15.7894 37.9475 15.2002 37.9475 14.4736C37.9475 13.7469 37.3583 13.1577 36.6317 13.1577Z" fill="#DD0F00"/>
<path d="M57.1569 39.4734C55.7058 39.4734 54.5254 40.654 54.5254 42.1049C54.5254 43.556 55.706 44.7365 57.1569 44.7365C58.6081 44.7365 59.7885 43.5559 59.7885 42.1049C59.7885 40.6538 58.6081 39.4734 57.1569 39.4734Z" fill="black"/>
<path d="M16.1042 39.4734C14.6531 39.4734 13.4727 40.654 13.4727 42.1049C13.4727 43.556 14.6532 44.7365 16.1042 44.7365C17.5553 44.7365 18.7358 43.5559 18.7358 42.1049C18.7358 40.6538 17.5553 39.4734 16.1042 39.4734Z" fill="black"/>
</svg>
