<svg width="16" height="19" viewBox="0 0 16 19" fill="none" xmlns="http://www.w3.org/2000/svg">
<path d="M6.14844 7.9856H10.6148C11.2081 7.9856 11.6891 7.50464 11.6891 6.91138C11.6891 6.31812 11.2081 5.83716 10.6148 5.83716H6.14844C5.55518 5.83716 5.07422 6.31812 5.07422 6.91138C5.07422 7.50464 5.55518 7.9856 6.14844 7.9856Z" fill="black"/>
<path d="M6.14844 12.6731H10.6148C11.2081 12.6731 11.6891 12.1921 11.6891 11.5989C11.6891 11.0056 11.2081 10.5247 10.6148 10.5247H6.14844C5.55518 10.5247 5.07422 11.0056 5.07422 11.5989C5.07422 12.1921 5.55518 12.6731 6.14844 12.6731Z" fill="black"/>
<path d="M14.9258 0.00219727H1.83984C1.24658 0.00219727 0.765625 0.483154 0.765625 1.07642V17.4338C0.765625 18.0271 1.24658 18.5081 1.83984 18.5081H14.9258C15.519 18.5081 16 18.0271 16 17.4338V1.07642C16 0.483154 15.519 0.00219727 14.9258 0.00219727ZM13.8516 16.3596H2.91406V2.15063H13.8516V16.3596Z" fill="black"/>
</svg>
