<svg width="51" height="50" viewBox="0 0 51 50" fill="none" xmlns="http://www.w3.org/2000/svg">
<g clip-path="url(#clip0_379_398)">
<path d="M47.5703 32.4801V4.39453C47.5703 1.97139 45.5989 0 43.1758 0H10.8516C8.42842 0 6.45703 1.97139 6.45703 4.39453V5.95703H4.89453C2.47139 5.95703 0.5 7.92842 0.5 10.3516C0.5 12.7747 2.47139 14.7461 4.89453 14.7461H6.45703V20.6055H4.89453C2.47139 20.6055 0.5 22.5769 0.5 25C0.5 27.4231 2.47139 29.3945 4.89453 29.3945H6.45703V35.2539H4.89453C2.47139 35.2539 0.5 37.2253 0.5 39.6484C0.5 42.0716 2.47139 44.043 4.89453 44.043H6.45703V45.5078C6.45703 46.6753 6.90596 47.7878 7.72109 48.6405C8.55918 49.5172 9.671 50 10.8516 50H40.2461C45.9001 50 50.5 45.3563 50.5 39.6484C50.5 36.861 49.3814 34.3303 47.5703 32.4801ZM4.89453 11.8164C4.08682 11.8164 3.42969 11.1593 3.42969 10.3516C3.42969 9.54385 4.08682 8.88672 4.89453 8.88672H7.92188C8.72959 8.88672 9.38672 9.54385 9.38672 10.3516C9.38672 11.1593 8.72959 11.8164 7.92188 11.8164H4.89453ZM4.89453 26.4648C4.08682 26.4648 3.42969 25.8077 3.42969 25C3.42969 24.1923 4.08682 23.5352 4.89453 23.5352H7.92188C8.72959 23.5352 9.38672 24.1923 9.38672 25C9.38672 25.8077 8.72959 26.4648 7.92188 26.4648H4.89453ZM7.92188 41.1133H4.89453C4.08682 41.1133 3.42969 40.4562 3.42969 39.6484C3.42969 38.8407 4.08682 38.1836 4.89453 38.1836H7.92188C8.72959 38.1836 9.38672 38.8407 9.38672 39.6484C9.38672 40.4562 8.72959 41.1133 7.92188 41.1133ZM10.8516 47.0703C10.0713 47.0703 9.38672 46.3401 9.38672 45.5078V43.791C11.0917 43.1863 12.3164 41.5581 12.3164 39.6484C12.3164 37.7388 11.0917 36.1105 9.38672 35.5059V29.1426C11.0917 28.5379 12.3164 26.9097 12.3164 25C12.3164 23.0903 11.0917 21.4621 9.38672 20.8574V14.4941C11.0917 13.8895 12.3164 12.2612 12.3164 10.3516C12.3164 8.44189 11.0917 6.81367 9.38672 6.20898V4.39453C9.38672 3.58682 10.0438 2.92969 10.8516 2.92969H43.1758C43.9835 2.92969 44.6406 3.58682 44.6406 4.39453V30.3853C43.308 29.7505 41.8179 29.3945 40.2461 29.3945C34.5921 29.3945 29.9922 33.9944 29.9922 39.6484C29.9922 42.5566 31.1868 45.1881 33.1061 47.0703H10.8516ZM40.2461 47.0703C36.2075 47.0703 32.9219 43.7409 32.9219 39.6484C32.9219 35.6099 36.2075 32.3242 40.2461 32.3242C44.2847 32.3242 47.5703 35.6099 47.5703 39.6484C47.5703 43.7409 44.2847 47.0703 40.2461 47.0703Z" fill="black"/>
<path d="M40.2461 11.8164H31.457C30.648 11.8164 29.9922 12.4723 29.9922 13.2812C29.9922 14.0902 30.648 14.7461 31.457 14.7461H40.2461C41.0551 14.7461 41.7109 14.0902 41.7109 13.2812C41.7109 12.4723 41.0551 11.8164 40.2461 11.8164Z" fill="black"/>
<path d="M40.2461 23.5352H31.457C30.648 23.5352 29.9922 24.191 29.9922 25C29.9922 25.809 30.648 26.4648 31.457 26.4648H40.2461C41.0551 26.4648 41.7109 25.809 41.7109 25C41.7109 24.191 41.0551 23.5352 40.2461 23.5352Z" fill="black"/>
<path d="M43.1758 38.1836H41.7109V36.7188C41.7109 35.9098 41.0551 35.2539 40.2461 35.2539C39.4371 35.2539 38.7812 35.9098 38.7812 36.7188V39.6484C38.7812 40.4574 39.4371 41.1133 40.2461 41.1133H43.1758C43.9848 41.1133 44.6406 40.4574 44.6406 39.6484C44.6406 38.8395 43.9848 38.1836 43.1758 38.1836Z" fill="black"/>
<path d="M26.5355 9.31576C25.9635 8.74369 25.036 8.74369 24.464 9.31586L19.6404 14.1394L17.3346 11.8336C16.7626 11.2616 15.8351 11.2616 15.263 11.8336C14.691 12.4057 14.691 13.3331 15.263 13.9052L18.6046 17.2468C18.8906 17.5328 19.2655 17.6758 19.6404 17.6758C20.0153 17.6758 20.3902 17.5328 20.6761 17.2467L26.5355 11.3873C27.1076 10.8153 27.1076 9.88783 26.5355 9.31576Z" fill="#DD0F00"/>
<path d="M26.5355 21.0345C25.9635 20.4624 25.036 20.4624 24.464 21.0346L19.6404 25.8581L17.3346 23.5524C16.7626 22.9803 15.8351 22.9803 15.263 23.5524C14.691 24.1244 14.691 25.0519 15.263 25.624L18.6046 28.9656C18.8906 29.2516 19.2655 29.3946 19.6404 29.3946C20.0153 29.3946 20.3902 29.2516 20.6761 28.9655L26.5355 23.1061C27.1076 22.534 27.1076 21.6066 26.5355 21.0345Z" fill="#DD0F00"/>
<path d="M26.5355 32.7533C25.9635 32.1812 25.036 32.1812 24.464 32.7534L19.6404 37.5769L17.3346 35.2711C16.7626 34.6991 15.8351 34.6991 15.263 35.2711C14.691 35.8432 14.691 36.7706 15.263 37.3427L18.6046 40.6843C18.8906 40.9703 19.2655 41.1133 19.6404 41.1133C20.0153 41.1133 20.3902 40.9703 20.6761 40.6842L26.5355 34.8248C27.1076 34.2528 27.1076 33.3253 26.5355 32.7533Z" fill="black"/>
</g>
<defs>
<clipPath id="clip0_379_398">
<rect width="50" height="50" fill="white" transform="translate(0.5)"/>
</clipPath>
</defs>
</svg>
