<svg width="13" height="12" viewBox="0 0 13 12" fill="none" xmlns="http://www.w3.org/2000/svg">
<path d="M7.23617 0.515169L8.2405 3.4971C8.3435 3.80383 8.64022 4.01227 8.97499 4.01227H12.2253C12.9744 4.01227 13.2857 4.93677 12.6799 5.36122L10.0499 7.20481C9.7789 7.39489 9.66582 7.73078 9.76882 8.03858L10.7732 11.0205C11.0049 11.7074 10.1898 12.2787 9.58408 11.8543L6.95402 10.0107C6.68306 9.82061 6.31694 9.82061 6.04598 10.0107L3.41592 11.8543C2.81019 12.2787 1.99508 11.7074 2.22685 11.0205L3.23118 8.03858C3.33418 7.73186 3.2211 7.39489 2.95014 7.20481L0.320079 5.36122C-0.285653 4.93677 0.0256103 4.01227 0.774658 4.01227H4.02501C4.35979 4.01227 4.65649 3.80383 4.7595 3.4971L5.76383 0.515169C5.99671 -0.171723 7.0044 -0.171723 7.23617 0.515169Z" fill="#FFB800"/>
</svg>
